<?xml version="1.0" encoding="UTF-8"?>
<svg xmlns="http://www.w3.org/2000/svg" xmlns:xlink="http://www.w3.org/1999/xlink" viewBox="0 0 200 200" width="200px" height="200px">
<g id="surface130238179">
<path style=" stroke:none;fill-rule:nonzero;fill:rgb(36.862746%,23.529412%,82.352942%);fill-opacity:1;" d="M 174.4375 113.425781 C 176.707031 109.117188 178.007812 104.214844 178.007812 99.003906 C 178.007812 85.761719 169.691406 74.488281 158.003906 70.046875 C 158.003906 70.035156 158.007812 70.019531 158.007812 70.003906 C 158.007812 46.804688 139.203125 28 116.003906 28 C 96.4375 28 80.042969 41.402344 75.378906 59.515625 C 72.425781 58.546875 69.28125 58.003906 66.003906 58.003906 C 50.617188 58.003906 37.957031 69.589844 36.222656 84.507812 C 25.8125 86.710938 18 95.941406 18 107.003906 C 18 119.707031 28.300781 130.007812 41.003906 130.007812 C 41.355469 130.007812 41.707031 129.980469 42.054688 129.960938 C 42.046875 130.3125 42.003906 130.65625 42.003906 131.007812 C 42.003906 153.652344 60.359375 172.007812 83.003906 172.007812 C 95.878906 172.007812 107.355469 166.0625 114.875 156.78125 C 119.230469 161.230469 125.285156 164.007812 132.007812 164.007812 C 141.308594 164.007812 149.355469 158.707031 153.339844 150.972656 C 155.445312 151.640625 157.683594 152.007812 160.007812 152.007812 C 172.160156 152.007812 182.007812 142.15625 182.007812 130.007812 C 182.007812 123.382812 179.070312 117.460938 174.4375 113.425781 Z M 174.4375 113.425781 "/>
<path style=" stroke:none;fill-rule:nonzero;fill:rgb(100%,100%,100%);fill-opacity:1;" d="M 153.007812 122.007812 L 159.257812 122.007812 L 159.257812 121.007812 C 162.324219 121.007812 167.304688 121.007812 170.007812 121.007812 C 174.980469 121.007812 179.007812 116.976562 179.007812 112.003906 C 179.007812 107.339844 175.445312 103.546875 170.898438 103.09375 C 170.941406 102.734375 171.007812 102.378906 171.007812 102.003906 C 171.007812 97.035156 166.976562 93.003906 162.007812 93.003906 C 159.132812 93.003906 156.601562 94.375 154.953125 96.476562 C 154.671875 91.203125 150.347656 87.003906 145.007812 87.003906 C 139.484375 87.003906 135.007812 91.484375 135.007812 97.003906 C 135.007812 97.898438 135.160156 98.746094 135.378906 99.570312 C 134.097656 98.015625 132.179688 97.003906 130.007812 97.003906 C 126.445312 97.003906 123.539062 99.675781 123.097656 103.113281 C 122.734375 103.070312 122.378906 103.003906 122.007812 103.003906 C 117.035156 103.003906 113.003906 107.035156 113.003906 112.003906 C 113.003906 116.976562 117.035156 121.007812 122.007812 121.007812 C 126.976562 121.007812 141.007812 121.007812 141.007812 121.007812 L 153.007812 121.007812 Z M 153.007812 122.007812 "/>
<path style=" stroke:none;fill-rule:nonzero;fill:rgb(63.529414%,29.411766%,92.156863%);fill-opacity:1;" d="M 145.007812 86.003906 C 138.941406 86.003906 134.007812 90.9375 134.007812 97.003906 C 134.007812 97.035156 134.007812 97.066406 134.007812 97.097656 C 132.800781 96.390625 131.425781 96.003906 130.007812 96.003906 C 126.34375 96.003906 123.183594 98.527344 122.289062 102.015625 C 122.195312 102.007812 122.101562 102.003906 122.007812 102.003906 C 116.492188 102.003906 112.003906 106.492188 112.003906 112.003906 C 112.003906 117.519531 116.492188 122.007812 122.007812 122.007812 L 153.007812 122.007812 C 153.558594 122.007812 154.007812 121.558594 154.007812 121.007812 C 154.007812 120.453125 153.558594 120.007812 153.007812 120.007812 L 122.007812 120.007812 C 117.59375 120.007812 114.003906 116.417969 114.003906 112.003906 C 114.003906 107.59375 117.59375 104.003906 122.007812 104.003906 C 122.238281 104.003906 122.464844 104.039062 122.691406 104.070312 L 122.972656 104.105469 C 123.015625 104.113281 123.054688 104.113281 123.097656 104.113281 C 123.589844 104.113281 124.023438 103.746094 124.089844 103.242188 C 124.46875 100.253906 127.015625 98.003906 130.007812 98.003906 C 131.777344 98.003906 133.453125 98.808594 134.609375 100.203125 C 134.804688 100.441406 135.089844 100.570312 135.378906 100.570312 C 135.535156 100.570312 135.691406 100.53125 135.835938 100.457031 C 136.253906 100.242188 136.464844 99.765625 136.34375 99.3125 C 136.113281 98.441406 136.007812 97.707031 136.007812 97.003906 C 136.007812 92.042969 140.042969 88.003906 145.007812 88.003906 C 149.769531 88.003906 153.703125 91.75 153.957031 96.53125 C 153.976562 96.945312 154.253906 97.304688 154.652344 97.429688 C 154.753906 97.460938 154.855469 97.480469 154.957031 97.480469 C 155.257812 97.480469 155.550781 97.339844 155.742188 97.09375 C 157.285156 95.128906 159.566406 94.003906 162.007812 94.003906 C 166.421875 94.003906 170.007812 97.59375 170.007812 102.003906 C 170.007812 102.238281 169.972656 102.464844 169.945312 102.691406 L 169.90625 102.972656 C 169.875 103.242188 169.949219 103.507812 170.117188 103.71875 C 170.285156 103.929688 170.53125 104.0625 170.796875 104.089844 C 174.910156 104.5 178.007812 107.902344 178.007812 112.003906 C 178.007812 116.417969 174.421875 120.007812 170.007812 120.007812 L 159.007812 120.007812 C 158.457031 120.007812 158.007812 120.453125 158.007812 121.007812 C 158.007812 121.558594 158.457031 122.007812 159.007812 122.007812 L 170.007812 122.007812 C 175.523438 122.007812 180.007812 117.519531 180.007812 112.003906 C 180.007812 107.210938 176.628906 103.179688 172.003906 102.25 C 172.007812 102.167969 172.007812 102.085938 172.007812 102.003906 C 172.007812 96.492188 167.523438 92.003906 162.007812 92.003906 C 159.65625 92.003906 157.421875 92.835938 155.640625 94.332031 C 154.445312 89.523438 150.117188 86.003906 145.007812 86.003906 Z M 145.007812 86.003906 "/>
<path style=" stroke:none;fill-rule:nonzero;fill:rgb(63.529414%,29.411766%,92.156863%);fill-opacity:1;" d="M 142.007812 100.003906 C 139.199219 100.003906 136.789062 102.003906 136.179688 104.6875 C 135.445312 104.242188 134.609375 104.003906 133.757812 104.003906 C 131.351562 104.003906 129.359375 105.800781 129.050781 108.140625 C 128.644531 108.050781 128.257812 108.003906 127.878906 108.003906 C 124.820312 108.003906 122.257812 110.40625 122.042969 113.46875 C 122.027344 113.746094 122.234375 113.984375 122.507812 114.003906 C 122.519531 114.003906 122.53125 114.003906 122.542969 114.003906 C 122.804688 114.003906 123.023438 113.804688 123.042969 113.542969 C 123.21875 111 125.34375 109.003906 127.878906 109.003906 C 128.339844 109.003906 128.820312 109.089844 129.355469 109.257812 C 129.398438 109.273438 129.445312 109.28125 129.492188 109.28125 C 129.601562 109.28125 129.710938 109.238281 129.800781 109.171875 C 129.929688 109.078125 130.007812 108.914062 130.007812 108.753906 C 130.007812 106.6875 131.6875 105.003906 133.757812 105.003906 C 134.652344 105.003906 135.527344 105.339844 136.21875 105.953125 C 136.3125 106.03125 136.429688 106.078125 136.546875 106.078125 C 136.613281 106.078125 136.675781 106.066406 136.734375 106.039062 C 136.910156 105.96875 137.03125 105.804688 137.042969 105.613281 C 137.253906 103.027344 139.429688 101.003906 142.007812 101.003906 C 142.421875 101.003906 142.855469 101.074219 143.371094 101.21875 C 143.417969 101.234375 143.464844 101.238281 143.511719 101.238281 C 143.730469 101.238281 143.925781 101.09375 143.988281 100.875 C 144.066406 100.609375 143.910156 100.332031 143.644531 100.257812 C 143.039062 100.085938 142.519531 100.003906 142.007812 100.003906 Z M 169.773438 103.003906 C 167.121094 103.003906 164.757812 104.800781 164.027344 107.371094 C 163.949219 107.636719 164.105469 107.910156 164.371094 107.988281 C 164.417969 108 164.464844 108.003906 164.507812 108.003906 C 164.726562 108.003906 164.925781 107.859375 164.988281 107.640625 C 165.597656 105.5 167.566406 104.003906 169.773438 104.003906 C 170.007812 104.003906 170.234375 104.03125 170.457031 104.0625 C 170.480469 104.066406 170.503906 104.070312 170.527344 104.070312 C 170.769531 104.070312 170.988281 103.886719 171.019531 103.636719 C 171.058594 103.359375 170.867188 103.109375 170.59375 103.074219 C 170.324219 103.035156 170.050781 103.003906 169.773438 103.003906 Z M 169.773438 103.003906 "/>
<path style=" stroke:none;fill-rule:nonzero;fill:rgb(100%,100%,100%);fill-opacity:1;" d="M 31 102.003906 L 11 102.003906 C 10.449219 102.003906 10 101.558594 10 101.003906 C 10 100.453125 10.449219 100.003906 11 100.003906 L 31 100.003906 C 31.554688 100.003906 32 100.453125 32 101.003906 C 32 101.558594 31.554688 102.003906 31 102.003906 Z M 37 102.003906 L 35 102.003906 C 34.449219 102.003906 34 101.558594 34 101.003906 C 34 100.453125 34.449219 100.003906 35 100.003906 L 37 100.003906 C 37.554688 100.003906 38 100.453125 38 101.003906 C 38 101.558594 37.554688 102.003906 37 102.003906 Z M 46.984375 106.003906 L 29 106.003906 C 28.449219 106.003906 28 105.558594 28 105.003906 C 28 104.453125 28.449219 104.003906 29 104.003906 L 46.984375 104.003906 C 47.535156 104.003906 47.984375 104.453125 47.984375 105.003906 C 47.984375 105.558594 47.535156 106.003906 46.984375 106.003906 Z M 25 106.003906 L 23 106.003906 C 22.449219 106.003906 22 105.558594 22 105.003906 C 22 104.453125 22.449219 104.003906 23 104.003906 L 25 104.003906 C 25.554688 104.003906 26 104.453125 26 105.003906 C 26 105.558594 25.554688 106.003906 25 106.003906 Z M 19 106.003906 L 15 106.003906 C 14.449219 106.003906 14 105.558594 14 105.003906 C 14 104.453125 14.449219 104.003906 15 104.003906 L 19 104.003906 C 19.554688 104.003906 20 104.453125 20 105.003906 C 20 105.558594 19.554688 106.003906 19 106.003906 Z M 31 110.003906 L 27 110.003906 C 26.449219 110.003906 26 109.558594 26 109.003906 C 26 108.453125 26.449219 108.003906 27 108.003906 L 31 108.003906 C 31.554688 108.003906 32 108.453125 32 109.003906 C 32 109.558594 31.554688 110.003906 31 110.003906 Z M 37 92.003906 C 36.648438 92.003906 35.355469 92.003906 35 92.003906 C 34.449219 92.003906 34 92.453125 34 93.003906 C 34 93.554688 34.449219 94.003906 35 94.003906 C 35.355469 94.003906 36.648438 94.003906 37 94.003906 C 37.554688 94.003906 38 93.554688 38 93.003906 C 38 92.453125 37.554688 92.003906 37 92.003906 Z M 37 96.003906 C 36.648438 96.003906 27.355469 96.003906 27 96.003906 C 26.449219 96.003906 26 96.453125 26 97.003906 C 26 97.558594 26.449219 98.003906 27 98.003906 C 27.355469 98.003906 36.648438 98.003906 37 98.003906 C 37.554688 98.003906 38 97.558594 38 97.003906 C 38 96.453125 37.554688 96.003906 37 96.003906 Z M 47.003906 100.003906 C 46.648438 100.003906 41.355469 100.003906 41.003906 100.003906 C 40.449219 100.003906 40.003906 100.453125 40.003906 101.003906 C 40.003906 101.558594 40.449219 102.003906 41.003906 102.003906 C 41.355469 102.003906 46.648438 102.003906 47.003906 102.003906 C 47.554688 102.003906 48.003906 101.558594 48.003906 101.003906 C 48.003906 100.453125 47.554688 100.003906 47.003906 100.003906 Z M 47.003906 100.003906 "/>
<path style=" stroke:none;fill-rule:nonzero;fill:rgb(100%,100%,100%);fill-opacity:1;" d="M 145.007812 48.003906 L 125.007812 48.003906 C 124.453125 48.003906 124.007812 47.554688 124.007812 47.003906 C 124.007812 46.449219 124.453125 46.003906 125.007812 46.003906 L 145.007812 46.003906 C 145.558594 46.003906 146.007812 46.449219 146.007812 47.003906 C 146.007812 47.554688 145.558594 48.003906 145.007812 48.003906 Z M 153.007812 48.003906 L 149.007812 48.003906 C 148.457031 48.003906 148.007812 47.554688 148.007812 47.003906 C 148.007812 46.449219 148.457031 46.003906 149.007812 46.003906 L 153.007812 46.003906 C 153.558594 46.003906 154.007812 46.449219 154.007812 47.003906 C 154.007812 47.554688 153.558594 48.003906 153.007812 48.003906 Z M 163.007812 52.003906 L 143.007812 52.003906 C 142.453125 52.003906 142.007812 51.554688 142.007812 51.003906 C 142.007812 50.449219 142.453125 50.003906 143.007812 50.003906 L 163.007812 50.003906 C 163.558594 50.003906 164.007812 50.449219 164.007812 51.003906 C 164.007812 51.554688 163.5625 52.003906 163.007812 52.003906 Z M 139.007812 52.003906 L 137.007812 52.003906 C 136.453125 52.003906 136.007812 51.554688 136.007812 51.003906 C 136.007812 50.449219 136.453125 50.003906 137.007812 50.003906 L 139.007812 50.003906 C 139.558594 50.003906 140.007812 50.449219 140.007812 51.003906 C 140.007812 51.554688 139.558594 52.003906 139.007812 52.003906 Z M 132.945312 52.003906 L 129.007812 52.003906 C 128.453125 52.003906 128.007812 51.554688 128.007812 51.003906 C 128.007812 50.449219 128.453125 50.003906 129.007812 50.003906 L 132.945312 50.003906 C 133.5 50.003906 133.945312 50.449219 133.945312 51.003906 C 133.945312 51.554688 133.5 52.003906 132.945312 52.003906 Z M 151.007812 44.003906 L 141.007812 44.003906 C 140.453125 44.003906 140.007812 43.554688 140.007812 43.003906 C 140.007812 42.449219 140.453125 42.003906 141.007812 42.003906 L 151.007812 42.003906 C 151.558594 42.003906 152.007812 42.449219 152.007812 43.003906 C 152.007812 43.554688 151.5625 44.003906 151.007812 44.003906 Z M 145.007812 56.003906 L 141.007812 56.003906 C 140.453125 56.003906 140.007812 55.554688 140.007812 55.003906 C 140.007812 54.449219 140.453125 54.003906 141.007812 54.003906 L 145.007812 54.003906 C 145.558594 54.003906 146.007812 54.449219 146.007812 55.003906 C 146.007812 55.554688 145.558594 56.003906 145.007812 56.003906 Z M 145.007812 56.003906 "/>
<path style=" stroke:none;fill-rule:nonzero;fill:rgb(33.333334%,65.490198%,97.647059%);fill-opacity:1;" d="M 104.003906 54.003906 C 78.597656 54.003906 58.003906 74.597656 58.003906 100.003906 C 58.003906 125.414062 78.597656 146.007812 104.003906 146.007812 C 129.414062 146.007812 150.007812 125.414062 150.007812 100.003906 C 150.007812 74.597656 129.414062 54.003906 104.003906 54.003906 Z M 104.003906 54.003906 "/>
<path style=" stroke:none;fill-rule:nonzero;fill:rgb(63.529414%,29.411766%,92.156863%);fill-opacity:1;" d="M 135.96875 131.964844 C 118.34375 149.589844 89.667969 149.589844 72.042969 131.96875 C 54.417969 114.34375 54.417969 85.667969 72.042969 68.042969 C 89.667969 50.417969 118.34375 50.417969 135.96875 68.042969 C 153.59375 85.664062 153.59375 114.34375 135.96875 131.964844 M 137.949219 133.945312 C 156.664062 115.230469 156.664062 84.777344 137.949219 66.0625 C 119.230469 47.34375 88.78125 47.34375 70.0625 66.0625 C 51.347656 84.777344 51.347656 115.234375 70.0625 133.949219 C 88.777344 152.664062 119.230469 152.664062 137.949219 133.945312 Z M 137.949219 133.945312 "/>
<path style=" stroke:none;fill-rule:nonzero;fill:rgb(100%,100%,100%);fill-opacity:1;" d="M 73.003906 147.007812 C 73.003906 147.007812 76.136719 147.007812 80.003906 147.007812 C 83.871094 147.007812 87.003906 143.875 87.003906 140.007812 C 87.003906 136.445312 84.335938 133.539062 80.894531 133.097656 C 80.949219 132.738281 81.003906 132.378906 81.003906 132.007812 C 81.003906 128.140625 77.871094 125.007812 74.003906 125.007812 C 71.941406 125.007812 70.101562 125.917969 68.824219 127.335938 C 68.054688 123.71875 64.847656 121.007812 61.003906 121.007812 C 56.585938 121.007812 53.003906 124.589844 53.003906 129.007812 C 53.003906 129.386719 53.0625 129.753906 53.113281 130.121094 C 52.257812 129.433594 51.1875 129.007812 50.003906 129.007812 C 47.546875 129.007812 45.511719 130.78125 45.09375 133.117188 C 44.734375 133.058594 44.375 133.007812 44.003906 133.007812 C 40.136719 133.007812 37 136.140625 37 140.007812 C 37 143.875 40.136719 147.007812 44.003906 147.007812 C 47.867188 147.007812 59.003906 147.007812 59.003906 147.007812 L 59.003906 148.007812 L 73.003906 148.007812 Z M 73.003906 147.007812 "/>
<path style=" stroke:none;fill-rule:nonzero;fill:rgb(63.529414%,29.411766%,92.156863%);fill-opacity:1;" d="M 76.503906 138.007812 C 76.226562 138.007812 76.003906 137.78125 76.003906 137.507812 C 76.003906 135.0625 77.992188 133.070312 80.441406 133.070312 C 80.507812 133.089844 81.914062 133.070312 82.929688 133.34375 C 83.195312 133.414062 83.351562 133.6875 83.28125 133.953125 C 83.207031 134.222656 82.933594 134.378906 82.667969 134.304688 C 81.78125 134.066406 80.46875 134.066406 80.441406 134.070312 C 78.546875 134.070312 77.003906 135.613281 77.003906 137.507812 C 77.003906 137.78125 76.78125 138.007812 76.503906 138.007812 Z M 63.003906 146.007812 C 62.449219 146.007812 62.003906 146.457031 62.003906 147.007812 C 62.003906 147.558594 62.449219 148.007812 63.003906 148.007812 C 63.554688 148.007812 64.003906 147.558594 64.003906 147.007812 C 64.003906 146.457031 63.554688 146.007812 63.003906 146.007812 Z M 63.003906 146.007812 "/>
<path style=" stroke:none;fill-rule:nonzero;fill:rgb(63.529414%,29.411766%,92.156863%);fill-opacity:1;" d="M 80.003906 148.007812 L 73.003906 148.007812 C 72.453125 148.007812 72.003906 147.558594 72.003906 147.007812 C 72.003906 146.457031 72.453125 146.007812 73.003906 146.007812 L 80.003906 146.007812 C 83.3125 146.007812 86.003906 143.316406 86.003906 140.007812 C 86.003906 137.015625 83.753906 134.46875 80.769531 134.089844 C 80.5 134.050781 80.257812 133.914062 80.097656 133.695312 C 79.933594 133.480469 79.867188 133.207031 79.90625 132.941406 C 79.953125 132.632812 80.003906 132.328125 80.003906 132.007812 C 80.003906 128.699219 77.3125 126.007812 74.003906 126.007812 C 72.304688 126.007812 70.726562 126.714844 69.566406 128.007812 C 69.316406 128.285156 68.921875 128.402344 68.566406 128.300781 C 68.203125 128.203125 67.921875 127.914062 67.84375 127.542969 C 67.164062 124.335938 64.285156 122.007812 61.003906 122.007812 C 57.144531 122.007812 54.003906 125.144531 54.003906 129.007812 C 54.003906 129.292969 54.042969 129.566406 54.085938 129.84375 C 54.144531 130.25 53.957031 130.71875 53.601562 130.921875 C 53.242188 131.125 52.808594 131.160156 52.488281 130.902344 C 51.757812 130.316406 50.902344 130.007812 50.003906 130.007812 C 48.070312 130.007812 46.417969 131.386719 46.078125 133.292969 C 45.980469 133.828125 45.484375 134.1875 44.9375 134.105469 C 44.628906 134.054688 44.320312 134.007812 44.003906 134.007812 C 40.695312 134.007812 38 136.699219 38 140.007812 C 38 143.316406 40.695312 146.007812 44.003906 146.007812 L 59.003906 146.007812 C 59.554688 146.007812 60.003906 146.457031 60.003906 147.007812 C 60.003906 147.558594 59.554688 148.007812 59.003906 148.007812 L 44.003906 148.007812 C 39.589844 148.007812 36 144.417969 36 140.007812 C 36 135.59375 39.589844 132.007812 44.003906 132.007812 C 44.121094 132.007812 44.234375 132.011719 44.351562 132.019531 C 45.179688 129.644531 47.425781 128.007812 50.003906 128.007812 C 50.699219 128.007812 51.378906 128.128906 52.023438 128.367188 C 52.355469 123.699219 56.253906 120.007812 61.003906 120.007812 C 64.664062 120.007812 67.933594 122.261719 69.308594 125.554688 C 70.667969 124.558594 72.3125 124.007812 74.003906 124.007812 C 78.414062 124.007812 82.003906 127.59375 82.003906 132.007812 C 82.003906 132.101562 82.003906 132.195312 81.996094 132.289062 C 85.480469 133.1875 88.003906 136.34375 88.003906 140.007812 C 88.003906 144.417969 84.417969 148.007812 80.003906 148.007812 Z M 80.003906 148.007812 "/>
<path style=" stroke:none;fill-rule:nonzero;fill:rgb(63.529414%,29.411766%,92.156863%);fill-opacity:1;" d="M 69.003906 146.007812 C 68.683594 146.007812 67.320312 146.007812 67.003906 146.007812 C 66.453125 146.007812 66.003906 146.457031 66.003906 147.007812 C 66.003906 147.558594 66.453125 148.007812 67.003906 148.007812 C 67.320312 148.007812 68.683594 148.007812 69.003906 148.007812 C 69.554688 148.007812 70.003906 147.558594 70.003906 147.007812 C 70.003906 146.457031 69.554688 146.007812 69.003906 146.007812 Z M 69.003906 146.007812 "/>
<path style=" stroke:none;fill-rule:nonzero;fill:rgb(100%,100%,100%);fill-opacity:1;" d="M 145.007812 100.046875 C 145.007812 114.984375 126.648438 127.089844 104.003906 127.089844 C 81.359375 127.089844 63.003906 114.984375 63.003906 100.046875 C 63.003906 85.109375 81.359375 73.003906 104.003906 73.003906 C 126.648438 73.003906 145.007812 85.109375 145.007812 100.046875 Z M 145.007812 100.046875 "/>
<path style=" stroke:none;fill-rule:nonzero;fill:rgb(63.529414%,29.411766%,92.156863%);fill-opacity:1;" d="M 104.003906 128.089844 C 86.335938 128.089844 69.488281 116.984375 62.089844 100.457031 L 61.90625 100.050781 L 62.089844 99.640625 C 69.488281 83.109375 86.332031 72.003906 104.003906 72.003906 C 121.679688 72.003906 138.519531 83.109375 145.917969 99.640625 L 146.101562 100.046875 L 145.917969 100.453125 C 138.519531 116.984375 121.675781 128.089844 104.003906 128.089844 Z M 64.101562 100.046875 C 71.277344 115.640625 87.253906 126.089844 104.003906 126.089844 C 120.757812 126.089844 136.734375 115.644531 143.910156 100.046875 C 136.734375 84.449219 120.757812 74.003906 104.003906 74.003906 C 87.253906 74.003906 71.277344 84.449219 64.101562 100.046875 Z M 64.101562 100.046875 "/>
<path style=" stroke:none;fill-rule:nonzero;fill:rgb(33.333334%,65.490198%,97.647059%);fill-opacity:1;" d="M 124.980469 100.03125 C 124.980469 111.617188 115.589844 121.007812 104.003906 121.007812 C 92.417969 121.007812 83.027344 111.617188 83.027344 100.03125 C 83.027344 88.445312 92.417969 79.054688 104.003906 79.054688 C 115.589844 79.054688 124.980469 88.445312 124.980469 100.03125 Z M 124.980469 100.03125 "/>
<path style=" stroke:none;fill-rule:nonzero;fill:rgb(63.529414%,29.411766%,92.156863%);fill-opacity:1;" d="M 104.003906 122.007812 C 91.886719 122.007812 82.03125 112.148438 82.03125 100.03125 C 82.03125 87.914062 91.886719 78.054688 104.003906 78.054688 C 116.125 78.054688 125.980469 87.914062 125.980469 100.03125 C 125.980469 112.148438 116.125 122.007812 104.003906 122.007812 Z M 104.003906 80.054688 C 92.992188 80.054688 84.03125 89.015625 84.03125 100.03125 C 84.03125 111.046875 92.992188 120.007812 104.003906 120.007812 C 115.019531 120.007812 123.980469 111.046875 123.980469 100.03125 C 123.980469 89.015625 115.019531 80.054688 104.003906 80.054688 Z M 104.003906 80.054688 "/>
<path style=" stroke:none;fill-rule:nonzero;fill:rgb(63.529414%,29.411766%,92.156863%);fill-opacity:1;" d="M 104.003906 116.054688 C 103.730469 116.054688 103.503906 115.832031 103.503906 115.554688 C 103.503906 115.28125 103.730469 115.054688 104.003906 115.054688 C 112.292969 115.054688 119.03125 108.316406 119.03125 100.03125 C 119.03125 98.1875 118.699219 96.390625 118.046875 94.683594 C 117.949219 94.425781 118.078125 94.136719 118.335938 94.039062 C 118.585938 93.941406 118.882812 94.070312 118.980469 94.328125 C 119.679688 96.144531 120.03125 98.066406 120.03125 100.03125 C 120.03125 108.867188 112.839844 116.054688 104.003906 116.054688 Z M 104.003906 116.054688 "/>
<path style=" stroke:none;fill-rule:nonzero;fill:rgb(63.529414%,29.411766%,92.156863%);fill-opacity:1;" d="M 116.628906 91.503906 C 116.472656 91.503906 116.320312 91.433594 116.222656 91.296875 C 114.8125 89.332031 112.929688 87.710938 110.78125 86.621094 C 110.535156 86.5 110.433594 86.195312 110.5625 85.949219 C 110.683594 85.703125 110.988281 85.609375 111.234375 85.730469 C 113.527344 86.894531 115.535156 88.617188 117.035156 90.714844 C 117.195312 90.9375 117.144531 91.25 116.917969 91.414062 C 116.832031 91.472656 116.730469 91.503906 116.628906 91.503906 Z M 116.628906 91.503906 "/>
<path style=" stroke:none;fill-rule:nonzero;fill:rgb(63.529414%,29.411766%,92.156863%);fill-opacity:1;" d="M 107.003906 85.296875 C 106.972656 85.296875 106.941406 85.292969 106.910156 85.285156 C 105.957031 85.097656 104.980469 85.003906 104.003906 85.003906 C 103.730469 85.003906 103.503906 84.78125 103.503906 84.503906 C 103.503906 84.226562 103.730469 84.003906 104.003906 84.003906 C 105.046875 84.003906 106.085938 84.105469 107.101562 84.304688 C 107.375 84.355469 107.550781 84.621094 107.496094 84.890625 C 107.449219 85.128906 107.238281 85.296875 107.003906 85.296875 Z M 107.003906 85.296875 "/>
</g>
</svg>
