<?xml version="1.0" encoding="UTF-8"?>
<svg xmlns="http://www.w3.org/2000/svg" xmlns:xlink="http://www.w3.org/1999/xlink" viewBox="0 0 200 200" width="200px" height="200px">
<g id="surface130326293">
<path style=" stroke:none;fill-rule:nonzero;fill:rgb(57.254905%,6.666667%,100%);fill-opacity:1;" d="M 26 54.003906 C 23.792969 54.003906 22 55.792969 22 58.003906 C 22 60.214844 23.792969 62.003906 26 62.003906 C 28.210938 62.003906 30 60.214844 30 58.003906 C 30 55.792969 28.210938 54.003906 26 54.003906 Z M 26 54.003906 "/>
<path style=" stroke:none;fill-rule:nonzero;fill:rgb(65.490198%,24.313726%,83.92157%);fill-opacity:1;" d="M 154.007812 24 C 152.902344 24 152.007812 24.898438 152.007812 26 C 152.007812 27.105469 152.902344 28 154.007812 28 C 155.113281 28 156.007812 27.105469 156.007812 26 C 156.007812 24.898438 155.113281 24 154.007812 24 Z M 154.007812 24 "/>
<path style=" stroke:none;fill-rule:nonzero;fill:rgb(43.529412%,23.137255%,83.92157%);fill-opacity:1;" d="M 100.003906 26 C 59.132812 26 26 59.132812 26 100.003906 C 26 140.875 59.132812 174.007812 100.003906 174.007812 C 140.875 174.007812 174.007812 140.875 174.007812 100.003906 C 174.007812 59.132812 140.875 26 100.003906 26 Z M 100.003906 26 "/>
<path style=" stroke:none;fill-rule:nonzero;fill:rgb(65.490198%,24.313726%,83.92157%);fill-opacity:1;" d="M 166.007812 22 C 161.589844 22 158.007812 25.582031 158.007812 30 C 158.007812 34.417969 161.589844 38 166.007812 38 C 170.425781 38 174.007812 34.417969 174.007812 30 C 174.007812 25.582031 170.425781 22 166.007812 22 Z M 166.007812 22 "/>
<path style=" stroke:none;fill-rule:nonzero;fill:rgb(57.254905%,6.666667%,100%);fill-opacity:1;" d="M 174.007812 44.003906 C 171.796875 44.003906 170.007812 45.792969 170.007812 48.003906 C 170.007812 50.210938 171.796875 52.003906 174.007812 52.003906 C 176.21875 52.003906 178.007812 50.210938 178.007812 48.003906 C 178.007812 45.792969 176.21875 44.003906 174.007812 44.003906 Z M 174.007812 44.003906 "/>
<path style=" stroke:none;fill-rule:nonzero;fill:rgb(89.411765%,100%,72.941178%);fill-opacity:1;" d="M 162.007812 148.007812 C 159.796875 148.007812 158.007812 149.796875 158.007812 152.007812 C 158.007812 154.21875 159.796875 156.007812 162.007812 156.007812 C 164.21875 156.007812 166.007812 154.21875 166.007812 152.007812 C 166.007812 149.796875 164.21875 148.007812 162.007812 148.007812 Z M 30 118.003906 C 25.582031 118.003906 22 121.589844 22 126.007812 C 22 130.425781 25.582031 134.007812 30 134.007812 C 34.417969 134.007812 38 130.425781 38 126.007812 C 38 121.589844 34.417969 118.003906 30 118.003906 Z M 30 118.003906 "/>
<path style=" stroke:none;fill-rule:nonzero;fill:rgb(57.254905%,6.666667%,100%);fill-opacity:1;" d="M 50.003906 170.007812 C 47.792969 170.007812 46.003906 171.796875 46.003906 174.007812 C 46.003906 176.21875 47.792969 178.007812 50.003906 178.007812 C 52.210938 178.007812 54.003906 176.21875 54.003906 174.007812 C 54.003906 171.796875 52.210938 170.007812 50.003906 170.007812 Z M 50.003906 170.007812 "/>
<path style=" stroke:none;fill-rule:nonzero;fill:rgb(100%,100%,100%);fill-opacity:1;" d="M 37 102.003906 C 34.238281 102.003906 32 104.242188 32 107.003906 C 32 109.765625 34.238281 112.003906 37 112.003906 C 39.765625 112.003906 42.003906 109.765625 42.003906 107.003906 C 42.003906 104.242188 39.765625 102.003906 37 102.003906 Z M 37 102.003906 "/>
<path style=" stroke:none;fill-rule:nonzero;fill:rgb(65.490198%,24.313726%,83.92157%);fill-opacity:1;" d="M 42.003906 132.007812 C 40.898438 132.007812 40.003906 132.902344 40.003906 134.007812 C 40.003906 135.109375 40.898438 136.007812 42.003906 136.007812 C 43.105469 136.007812 44.003906 135.109375 44.003906 134.007812 C 44.003906 132.902344 43.105469 132.007812 42.003906 132.007812 Z M 42.003906 132.007812 "/>
<path style=" stroke:none;fill-rule:nonzero;fill:rgb(100%,100%,100%);fill-opacity:1;" d="M 160.007812 66.003906 C 158.902344 66.003906 158.007812 66.898438 158.007812 68.003906 C 158.007812 69.105469 158.902344 70.003906 160.007812 70.003906 C 161.113281 70.003906 162.007812 69.105469 162.007812 68.003906 C 162.007812 66.898438 161.113281 66.003906 160.007812 66.003906 Z M 160.007812 66.003906 "/>
<path style=" stroke:none;fill-rule:nonzero;fill:rgb(33.333334%,65.490198%,97.647059%);fill-opacity:1;" d="M 147.921875 100.003906 C 147.921875 126.46875 126.46875 147.921875 100.003906 147.921875 C 73.539062 147.921875 52.085938 126.46875 52.085938 100.003906 C 52.085938 73.539062 73.539062 52.085938 100.003906 52.085938 C 126.46875 52.085938 147.921875 73.539062 147.921875 100.003906 Z M 147.921875 100.003906 "/>
<path style=" stroke:none;fill-rule:nonzero;fill:rgb(72.156864%,34.901962%,100%);fill-opacity:1;" d="M 100.003906 52.800781 C 126.03125 52.800781 147.207031 73.976562 147.207031 100.003906 C 147.207031 126.03125 126.03125 147.207031 100.003906 147.207031 C 73.976562 147.207031 52.800781 126.03125 52.800781 100.003906 C 52.800781 73.976562 73.976562 52.800781 100.003906 52.800781 M 100.003906 50.003906 C 72.390625 50.003906 50.003906 72.390625 50.003906 100.003906 C 50.003906 127.621094 72.390625 150.007812 100.003906 150.007812 C 127.621094 150.007812 150.007812 127.621094 150.007812 100.003906 C 150.007812 72.390625 127.621094 50.003906 100.003906 50.003906 Z M 100.003906 50.003906 "/>
<path style=" stroke:none;fill-rule:nonzero;fill:rgb(100%,100%,100%);fill-opacity:1;" d="M 141.007812 100.046875 C 141.007812 114.984375 122.648438 127.089844 100.003906 127.089844 C 77.359375 127.089844 59.003906 114.984375 59.003906 100.046875 C 59.003906 85.109375 77.359375 73.003906 100.003906 73.003906 C 122.648438 73.003906 141.007812 85.109375 141.007812 100.046875 Z M 141.007812 100.046875 "/>
<path style=" stroke:none;fill-rule:nonzero;fill:rgb(72.156864%,34.901962%,100%);fill-opacity:1;" d="M 100.003906 128.089844 C 82.335938 128.089844 65.488281 116.984375 58.089844 100.457031 L 57.90625 100.050781 L 58.089844 99.640625 C 65.488281 83.109375 82.332031 72.003906 100.003906 72.003906 C 117.679688 72.003906 134.519531 83.109375 141.917969 99.640625 L 142.101562 100.046875 L 141.917969 100.453125 C 134.519531 116.984375 117.675781 128.089844 100.003906 128.089844 Z M 60.101562 100.046875 C 67.277344 115.640625 83.253906 126.089844 100.003906 126.089844 C 116.753906 126.089844 132.734375 115.644531 139.910156 100.046875 C 132.734375 84.449219 116.753906 74.003906 100.003906 74.003906 C 83.253906 74.003906 67.273438 84.449219 60.101562 100.046875 Z M 60.101562 100.046875 "/>
<path style=" stroke:none;fill-rule:nonzero;fill:rgb(33.333334%,65.490198%,97.647059%);fill-opacity:1;" d="M 120.980469 100.03125 C 120.980469 111.617188 111.589844 121.007812 100.003906 121.007812 C 88.417969 121.007812 79.027344 111.617188 79.027344 100.03125 C 79.027344 88.445312 88.417969 79.054688 100.003906 79.054688 C 111.589844 79.054688 120.980469 88.445312 120.980469 100.03125 Z M 120.980469 100.03125 "/>
<path style=" stroke:none;fill-rule:nonzero;fill:rgb(72.156864%,34.901962%,100%);fill-opacity:1;" d="M 100.003906 122.007812 C 87.886719 122.007812 78.03125 112.148438 78.03125 100.03125 C 78.03125 87.914062 87.886719 78.054688 100.003906 78.054688 C 112.125 78.054688 121.980469 87.914062 121.980469 100.03125 C 121.980469 112.148438 112.125 122.007812 100.003906 122.007812 Z M 100.003906 80.054688 C 88.992188 80.054688 80.03125 89.015625 80.03125 100.03125 C 80.03125 111.046875 88.992188 120.007812 100.003906 120.007812 C 111.019531 120.007812 119.980469 111.046875 119.980469 100.03125 C 119.980469 89.015625 111.019531 80.054688 100.003906 80.054688 Z M 100.003906 80.054688 "/>
<path style=" stroke:none;fill-rule:nonzero;fill:rgb(72.156864%,34.901962%,100%);fill-opacity:1;" d="M 100.003906 116.054688 C 99.730469 116.054688 99.503906 115.832031 99.503906 115.554688 C 99.503906 115.28125 99.730469 115.054688 100.003906 115.054688 C 108.292969 115.054688 115.03125 108.316406 115.03125 100.03125 C 115.03125 98.1875 114.699219 96.390625 114.046875 94.683594 C 113.949219 94.425781 114.078125 94.136719 114.335938 94.039062 C 114.585938 93.941406 114.882812 94.070312 114.980469 94.328125 C 115.679688 96.144531 116.03125 98.066406 116.03125 100.03125 C 116.03125 108.867188 108.839844 116.054688 100.003906 116.054688 Z M 100.003906 116.054688 "/>
<path style=" stroke:none;fill-rule:nonzero;fill:rgb(72.156864%,34.901962%,100%);fill-opacity:1;" d="M 112.628906 91.503906 C 112.472656 91.503906 112.320312 91.433594 112.222656 91.296875 C 110.8125 89.332031 108.929688 87.710938 106.777344 86.621094 C 106.535156 86.5 106.433594 86.195312 106.5625 85.949219 C 106.683594 85.703125 106.988281 85.609375 107.234375 85.730469 C 109.523438 86.894531 111.535156 88.617188 113.035156 90.714844 C 113.195312 90.9375 113.144531 91.25 112.917969 91.414062 C 112.832031 91.472656 112.730469 91.503906 112.628906 91.503906 Z M 112.628906 91.503906 "/>
<path style=" stroke:none;fill-rule:nonzero;fill:rgb(72.156864%,34.901962%,100%);fill-opacity:1;" d="M 103.003906 85.296875 C 102.972656 85.296875 102.941406 85.292969 102.910156 85.285156 C 101.957031 85.097656 100.980469 85.003906 100.003906 85.003906 C 99.730469 85.003906 99.503906 84.78125 99.503906 84.503906 C 99.503906 84.226562 99.730469 84.003906 100.003906 84.003906 C 101.046875 84.003906 102.085938 84.105469 103.101562 84.304688 C 103.375 84.355469 103.550781 84.621094 103.496094 84.890625 C 103.449219 85.128906 103.238281 85.296875 103.003906 85.296875 Z M 103.003906 85.296875 "/>
</g>
</svg>
